<svg xmlns="http://www.w3.org/2000/svg" width="1024" height="1024" viewBox="0 0 1024 1024">
  <defs>
    <radialGradient id="mGround" gradientUnits="userSpaceOnUse" cx="50" cy="-12" r="140">
      <stop offset="0" stop-color="#313844"/>
      <stop offset="0.45" stop-color="#1c2029"/>
      <stop offset="1" stop-color="#0d0f14"/>
    </radialGradient>
    <linearGradient id="mSteel" x1="0" y1="0" x2="0" y2="1">
      <stop offset="0" stop-color="#aab3bf"/>
      <stop offset="1" stop-color="#636c77"/>
    </linearGradient>
    <linearGradient id="mSheen" x1="0" y1="0" x2="0" y2="1">
      <stop offset="0" stop-color="#ffffff" stop-opacity="0.25"/>
      <stop offset="0.35" stop-color="#ffffff" stop-opacity="0.04"/>
      <stop offset="1" stop-color="#ffffff" stop-opacity="0"/>
    </linearGradient>
    <linearGradient id="mPulse" gradientUnits="userSpaceOnUse" x1="73" y1="52" x2="52" y2="73">
      <stop offset="0" stop-color="#ffffff" stop-opacity="0.05"/>
      <stop offset="0.55" stop-color="#f2f5f8" stop-opacity="0.85"/>
      <stop offset="1" stop-color="#ffffff"/>
    </linearGradient>
    <radialGradient id="mHead" gradientUnits="userSpaceOnUse" cx="52" cy="73" r="5">
      <stop offset="0" stop-color="#ffffff"/>
      <stop offset="0.55" stop-color="#eef2f6"/>
      <stop offset="1" stop-color="#c6ced7"/>
    </radialGradient>
    <radialGradient id="mNode" gradientUnits="userSpaceOnUse" cx="71" cy="37.5" r="10">
      <stop offset="0" stop-color="#fdfeff"/>
      <stop offset="1" stop-color="#b6bfc9"/>
    </radialGradient>
    <pattern id="mGrid" width="9.2" height="9.2" patternUnits="userSpaceOnUse">
      <circle cx="4.6" cy="4.6" r="0.8" fill="#a8b0ba" opacity="0.06"/>
    </pattern>
    <filter id="mGlow" x="-200%" y="-200%" width="500%" height="500%">
      <feGaussianBlur stdDeviation="2.2"/>
    </filter>
    <filter id="tileShadow" x="-20%" y="-20%" width="140%" height="140%">
      <feGaussianBlur stdDeviation="14"/>
    </filter>
  </defs>
  <rect x="100" y="110" width="824" height="824" rx="190" fill="#000000" opacity="0.35" filter="url(#tileShadow)"/>
  <g transform="translate(100 100) scale(8.24)">
    <rect width="100" height="100" rx="23" fill="url(#mGround)"/>
    <rect width="100" height="100" rx="23" fill="url(#mGrid)"/>
    <rect x="27" y="27" width="46" height="46" rx="14" fill="none" stroke="#06080b" stroke-width="9.5" opacity="0.6"/>
    <rect x="27" y="27" width="46" height="46" rx="14" fill="none" stroke="url(#mSteel)" stroke-width="6.8"/>
    <circle cx="73" cy="40" r="10" fill="url(#mGround)"/>
    <circle cx="27" cy="55" r="10" fill="url(#mGround)"/>
    <path d="M 73 52 L 73 59 A 14 14 0 0 1 59 73 L 52 73" fill="none" stroke="#ffffff" stroke-width="8.5" stroke-linecap="round" opacity="0.22" filter="url(#mGlow)"/>
    <path d="M 73 52 L 73 59 A 14 14 0 0 1 59 73 L 52 73" fill="none" stroke="url(#mPulse)" stroke-width="6.8" stroke-linecap="round"/>
    <circle cx="52" cy="73" r="6" fill="#ffffff" opacity="0.35" filter="url(#mGlow)"/>
    <circle cx="52" cy="73" r="4.4" fill="url(#mHead)"/>
    <circle cx="73" cy="40" r="6.6" fill="url(#mNode)"/>
    <circle cx="27" cy="55" r="6.2" fill="none" stroke="#eef1f4" stroke-width="3.6"/>
  </g>
</svg>
